<svg width="436" height="338" viewBox="0 0 436 338" fill="none" xmlns="http://www.w3.org/2000/svg">
<path fill-rule="evenodd" clip-rule="evenodd" d="M222.802 -8.67285C261.281 -11.0082 298.318 -0.546576 332.978 13.3261C371.183 28.618 418.196 42.4703 432.477 75.2502C446.774 108.067 413.614 141.028 403.342 174.838C394.307 204.576 398.728 237.84 375.732 262.025C352.288 286.682 313.145 295.046 277.805 306.869C238.472 320.029 197.564 347.046 157.717 334.966C117.555 322.79 115.133 276.295 87.8483 249.281C61.49 223.183 8.09918 213.043 0.900836 179.704C-6.27455 146.471 31.0911 118.663 53.5329 90.3482C72.8998 65.9132 93.6985 43.0292 122.653 26.091C152.762 8.4776 185.891 -6.43265 222.802 -8.67285Z" fill="#2FF7FF"/>
</svg>
